<?xml version="1.0" standalone="no"?>
<!DOCTYPE svg PUBLIC "-//W3C//DTD SVG 20010904//EN"
 "http://www.w3.org/TR/2001/REC-SVG-20010904/DTD/svg10.dtd">
<svg version="1.0" xmlns="http://www.w3.org/2000/svg"
 width="4167.000000pt" height="4167.000000pt" viewBox="0 0 4167.000000 4167.000000"
 preserveAspectRatio="xMidYMid meet">
<metadata>
Created by potrace 1.14, written by Peter Selinger 2001-2017
</metadata>
<g transform="translate(0.000000,4167.000000) scale(0.100000,-0.100000)"
fill="#000000" stroke="none">
<path d="M8457 32594 c-1 -1 -51 -4 -112 -8 -97 -6 -189 -15 -305 -32 -151
-21 -417 -86 -582 -143 -209 -71 -472 -191 -630 -287 -199 -121 -352 -230
-504 -359 -109 -92 -338 -329 -435 -450 -82 -102 -228 -310 -278 -395 -87
-149 -181 -337 -231 -465 -18 -44 -40 -100 -50 -125 -36 -90 -116 -375 -134
-475 -3 -16 -8 -41 -11 -55 -2 -13 -7 -42 -11 -64 -3 -22 -7 -43 -9 -46 -1 -3
-6 -34 -10 -70 -3 -36 -8 -78 -11 -95 -8 -64 -18 -265 -18 -375 0 -127 11
-361 19 -382 2 -7 7 -38 10 -68 5 -51 29 -200 40 -245 2 -11 11 -50 19 -88 98
-446 344 -959 636 -1329 412 -521 917 -889 1536 -1118 124 -46 292 -97 384
-116 14 -3 41 -9 60 -14 19 -5 53 -12 75 -15 22 -4 49 -9 60 -12 11 -3 34 -7
50 -9 32 -2 117 -14 149 -20 98 -18 529 -25 711 -10 55 4 102 9 105 11 3 1 30
6 61 9 31 4 65 8 75 10 11 2 60 11 109 20 132 25 301 70 455 123 859 292 1575
922 1974 1737 112 227 225 540 260 716 2 14 14 68 25 120 11 52 23 115 26 140
3 25 8 56 10 70 23 163 29 261 29 465 0 212 -7 336 -30 483 -3 20 -7 46 -8 57
-12 79 -19 117 -31 170 -8 33 -16 71 -18 85 -31 172 -160 527 -271 749 -60
119 -150 278 -172 302 -8 8 -14 18 -14 22 0 11 -191 278 -220 307 -3 3 -27 32
-55 65 -64 78 -290 305 -380 381 -112 95 -213 174 -224 174 -5 0 -11 3 -13 8
-3 8 -183 132 -191 132 -3 0 -29 16 -59 35 -70 47 -369 194 -483 238 -224 87
-498 164 -680 192 -148 22 -255 35 -355 41 -110 6 -338 12 -343 8z"/>
<path d="M32987 32594 c-1 -1 -56 -5 -122 -9 -66 -4 -122 -8 -125 -10 -3 -1
-41 -6 -85 -10 -44 -4 -82 -8 -85 -10 -3 -2 -23 -6 -45 -9 -22 -3 -51 -8 -65
-11 -14 -3 -36 -7 -50 -10 -62 -11 -93 -19 -225 -56 -225 -62 -404 -129 -600
-226 -764 -378 -1343 -1000 -1673 -1793 -69 -168 -165 -485 -186 -620 -3 -19
-8 -46 -11 -60 -5 -22 -10 -60 -30 -195 -20 -136 -28 -553 -13 -725 12 -139
28 -248 58 -390 11 -52 22 -104 24 -115 23 -113 111 -379 181 -545 75 -177
261 -512 347 -625 4 -5 40 -53 80 -105 117 -156 330 -385 458 -495 19 -16 51
-43 71 -60 19 -16 52 -43 73 -60 21 -16 44 -35 51 -42 14 -13 293 -203 299
-203 2 0 33 -18 68 -39 146 -89 396 -203 605 -276 96 -34 369 -107 443 -119
19 -3 62 -10 95 -16 33 -6 78 -13 100 -16 22 -3 54 -7 70 -9 177 -25 678 -26
811 -1 10 2 44 7 74 11 30 4 64 9 75 11 10 2 37 6 60 10 125 18 414 96 565
152 8 3 17 6 20 7 3 1 18 7 33 13 16 7 30 12 32 12 3 0 34 14 70 30 36 17 68
30 70 30 6 0 221 106 245 120 8 5 62 37 120 72 261 155 527 367 725 579 285
305 501 631 658 989 8 19 24 56 35 81 35 77 121 339 148 449 17 72 44 192 49
220 24 147 24 144 40 285 17 150 22 405 10 560 -13 188 -17 219 -46 390 -70
422 -263 914 -495 1263 -13 21 -30 45 -37 56 -74 111 -221 298 -311 395 -123
133 -324 323 -364 345 -9 5 -21 15 -27 21 -28 34 -357 262 -415 288 -8 4 -31
17 -50 28 -54 33 -257 134 -330 164 -36 14 -80 33 -98 41 -68 31 -371 126
-472 148 -67 15 -169 35 -205 40 -22 4 -47 8 -55 11 -8 2 -42 7 -75 10 -33 4
-71 8 -85 10 -80 11 -475 26 -483 19z"/>
<path d="M20208 22645 c-2 -1 -111 -6 -243 -9 -297 -8 -442 -15 -712 -31 -123
-7 -411 -30 -518 -40 -27 -3 -70 -7 -95 -9 -89 -8 -185 -18 -200 -21 -8 -2
-51 -6 -95 -11 -44 -4 -82 -8 -85 -9 -3 -1 -34 -5 -70 -9 -36 -4 -90 -11 -120
-16 -30 -5 -77 -11 -105 -15 -27 -3 -61 -8 -75 -10 -14 -3 -41 -7 -60 -10 -82
-11 -156 -22 -190 -30 -3 0 -27 -4 -53 -9 -27 -4 -59 -9 -70 -12 -18 -3 -93
-17 -212 -40 -11 -2 -31 -6 -45 -9 -14 -3 -34 -7 -45 -9 -11 -3 -64 -14 -119
-26 -54 -12 -106 -23 -115 -25 -9 -2 -54 -13 -101 -25 -47 -12 -95 -24 -106
-26 -43 -8 -372 -104 -489 -142 -682 -225 -1222 -522 -1575 -866 -106 -103
-263 -266 -355 -370 -38 -43 -79 -88 -90 -100 -11 -12 -51 -57 -89 -101 -37
-44 -80 -93 -95 -110 -132 -151 -455 -552 -766 -950 -182 -234 -168 -216 -328
-417 -166 -211 -176 -223 -296 -368 -108 -129 -269 -316 -331 -384 -195 -213
-370 -388 -540 -541 -36 -32 -81 -72 -100 -90 -45 -40 -302 -243 -360 -284
-363 -256 -665 -427 -1040 -588 -19 -9 -48 -21 -65 -28 -284 -123 -857 -297
-1185 -360 -41 -8 -86 -17 -100 -20 -88 -19 -300 -57 -380 -69 -283 -40 -281
-40 -380 -51 -30 -4 -68 -8 -85 -10 -57 -7 -140 -15 -200 -20 -33 -3 -82 -7
-110 -10 -27 -2 -84 -7 -125 -10 -41 -3 -102 -7 -135 -10 -270 -20 -715 -25
-855 -10 -486 52 -967 -129 -1316 -495 -23 -25 -56 -63 -74 -85 -17 -22 -36
-47 -43 -55 -82 -101 -187 -310 -237 -470 -62 -199 -75 -297 -75 -575 0 -132
3 -260 7 -285 4 -25 10 -70 13 -100 33 -310 190 -773 369 -1095 16 -27 42 -75
59 -105 78 -140 310 -467 402 -566 5 -6 42 -47 80 -92 125 -145 389 -398 555
-532 30 -25 57 -47 60 -51 3 -3 68 -53 145 -111 254 -191 477 -335 795 -516
204 -116 609 -316 850 -420 391 -168 625 -257 1045 -398 301 -100 688 -217
890 -269 17 -5 35 -9 40 -11 6 -1 55 -14 109 -29 55 -15 110 -29 122 -31 13
-2 35 -9 49 -14 14 -5 25 -7 25 -5 0 2 11 0 24 -5 19 -7 275 -70 346 -85 8 -2
67 -15 130 -30 212 -48 245 -56 265 -59 16 -3 203 -42 350 -72 11 -2 34 -7 50
-9 53 -10 189 -36 235 -45 25 -6 59 -12 75 -15 17 -3 82 -15 145 -26 63 -12
128 -23 145 -25 16 -2 65 -10 110 -18 44 -8 98 -17 120 -21 34 -4 86 -13 250
-40 11 -1 36 -6 55 -9 19 -3 51 -8 70 -10 50 -7 105 -15 180 -26 102 -15 138
-20 188 -25 26 -3 54 -8 62 -10 8 -2 42 -7 75 -11 33 -3 67 -7 75 -9 36 -6 99
-15 150 -20 30 -3 66 -8 80 -10 14 -2 52 -7 85 -10 32 -4 62 -8 65 -10 3 -1
41 -6 84 -10 43 -4 87 -8 97 -10 10 -2 46 -6 81 -10 35 -3 77 -8 93 -10 34 -5
94 -11 180 -20 33 -3 75 -8 94 -11 18 -2 59 -7 90 -9 31 -3 74 -7 96 -10 22
-2 72 -7 110 -10 39 -4 86 -8 105 -10 19 -2 67 -7 105 -10 39 -3 88 -8 111
-11 22 -2 71 -7 110 -9 38 -3 92 -7 119 -10 112 -11 297 -26 373 -30 29 -2 90
-6 135 -10 45 -4 107 -9 137 -11 60 -3 177 -11 280 -19 36 -3 105 -7 154 -10
50 -3 119 -7 155 -10 36 -2 118 -7 181 -10 63 -3 149 -7 190 -10 122 -7 308
-16 420 -20 157 -7 351 -15 475 -20 121 -5 436 -15 615 -20 63 -1 270 -7 460
-11 436 -11 2580 -11 3005 -1 631 16 956 25 1090 32 50 2 160 7 245 10 150 5
259 10 445 20 50 2 144 7 210 10 66 3 152 8 190 10 72 5 193 12 325 20 123 7
293 18 465 30 86 6 125 9 390 30 33 2 92 7 130 10 39 2 93 7 120 10 28 2 85 7
127 10 42 3 92 8 110 10 18 2 67 6 108 9 41 4 86 8 100 10 14 3 63 7 110 11
47 3 99 8 115 10 17 2 62 7 100 10 39 4 77 8 85 10 8 1 51 6 95 9 44 4 91 9
105 11 14 2 54 7 90 10 36 4 72 8 80 10 8 2 49 6 90 9 41 4 86 9 100 12 14 2
48 6 75 9 28 2 64 6 80 9 17 2 55 7 85 11 30 3 66 8 80 10 14 2 48 7 75 10 28
3 82 10 120 15 39 5 90 12 115 15 25 3 56 8 70 10 14 2 48 7 75 10 28 3 93 12
145 20 52 8 115 17 140 20 57 8 98 14 130 20 14 2 45 7 70 10 25 3 56 8 70 11
14 2 39 6 55 8 17 2 71 11 120 20 50 8 106 17 125 20 19 3 44 7 55 10 11 2 40
7 65 11 25 4 54 9 65 11 18 3 145 25 230 39 26 5 326 60 380 71 31 6 378 75
396 79 9 2 61 13 115 25 55 12 108 24 119 26 36 7 58 12 190 43 72 16 141 32
155 35 14 3 54 12 90 21 36 9 74 18 85 21 11 2 117 29 235 59 118 31 225 58
237 60 33 8 598 170 678 195 510 161 896 299 1280 457 127 52 253 105 280 117
28 13 73 33 100 45 28 12 59 26 70 31 67 29 525 257 582 289 37 21 100 55 138
76 298 162 830 516 1025 682 14 12 59 49 100 83 240 199 481 441 671 675 100
123 108 133 218 296 129 189 246 403 326 598 48 117 117 319 131 381 10 44 8
38 32 140 41 172 56 307 56 510 1 191 -5 249 -41 400 -42 181 -139 392 -251
549 -131 185 -338 368 -537 476 -136 74 -325 143 -439 160 -21 3 -42 8 -47 10
-30 19 -351 25 -464 10 -112 -16 -681 -10 -925 10 -25 2 -88 6 -140 10 -139 9
-274 21 -365 31 -27 3 -66 8 -85 9 -36 4 -98 11 -160 20 -19 2 -53 7 -75 10
-93 11 -330 47 -336 50 -3 2 -28 7 -55 10 -54 7 -279 51 -334 65 -19 5 -51 12
-70 15 -19 3 -71 15 -115 26 -44 12 -87 22 -95 24 -39 8 -217 59 -320 92 -63
21 -119 38 -125 39 -16 3 -218 74 -240 84 -11 5 -83 34 -160 66 -77 31 -201
85 -275 121 -74 36 -148 72 -165 79 -16 8 -50 26 -75 40 -25 14 -70 39 -100
56 -30 16 -75 43 -100 59 -25 16 -54 33 -65 39 -36 20 -249 158 -285 187 -8 6
-73 55 -145 108 -449 337 -903 798 -1445 1470 -36 44 -70 87 -77 95 -19 23
-265 332 -298 374 -56 72 -166 211 -183 231 -9 11 -71 88 -136 170 -231 289
-515 626 -701 830 -55 61 -116 127 -135 149 -126 139 -308 313 -451 431 -173
142 -549 362 -833 487 -50 22 -109 48 -131 58 -22 10 -116 46 -210 80 -93 34
-179 66 -190 71 -26 11 -280 90 -335 104 -8 2 -46 13 -85 24 -72 20 -298 80
-325 86 -8 2 -85 19 -170 39 -160 36 -467 96 -625 122 -49 8 -101 17 -115 19
-14 3 -45 7 -70 10 -25 3 -52 8 -60 10 -8 2 -33 6 -55 9 -71 9 -120 16 -140
20 -11 2 -49 7 -85 11 -36 3 -72 8 -80 10 -8 2 -44 7 -80 10 -36 4 -72 8 -80
10 -8 1 -46 6 -85 9 -38 4 -81 9 -95 11 -27 4 -105 12 -195 20 -30 3 -79 7
-107 10 -29 3 -84 7 -123 10 -38 3 -97 7 -130 10 -170 14 -454 31 -665 40 -74
3 -182 8 -240 11 -108 5 -1177 14 -1182 9z"/>
</g>
</svg>
