<?xml version="1.0" standalone="no"?>
<!DOCTYPE svg PUBLIC "-//W3C//DTD SVG 20010904//EN"
 "http://www.w3.org/TR/2001/REC-SVG-20010904/DTD/svg10.dtd">
<svg version="1.0" xmlns="http://www.w3.org/2000/svg"
 width="3500.000000pt" height="3500.000000pt" viewBox="0 0 3500.000000 3500.000000"
 preserveAspectRatio="xMidYMid meet">
<metadata>
Created by potrace 1.14, written by Peter Selinger 2001-2017
</metadata>
<g transform="translate(0.000000,3500.000000) scale(0.100000,-0.100000)"
fill="#000000" stroke="none">
<path d="M16847 30663 c-1 -1 -108 -4 -237 -8 -129 -3 -273 -8 -320 -10 -169
-7 -336 -16 -400 -20 -36 -2 -110 -7 -165 -10 -55 -3 -122 -8 -150 -10 -27 -2
-88 -7 -135 -10 -83 -5 -138 -9 -270 -20 -36 -3 -90 -8 -120 -10 -101 -8 -194
-16 -240 -20 -83 -8 -165 -16 -215 -20 -95 -7 -174 -15 -295 -30 -25 -3 -65
-8 -90 -10 -66 -6 -140 -15 -180 -20 -19 -2 -75 -9 -125 -15 -111 -14 -201
-26 -255 -35 -16 -3 -94 -14 -150 -21 -19 -3 -46 -7 -60 -9 -14 -3 -43 -7 -65
-10 -37 -5 -235 -39 -295 -51 -14 -2 -41 -7 -60 -10 -19 -3 -66 -12 -105 -19
-38 -8 -81 -16 -95 -19 -114 -21 -325 -69 -475 -107 -44 -12 -87 -22 -96 -24
-30 -6 -222 -66 -314 -97 -360 -124 -621 -256 -945 -479 -35 -24 -210 -159
-220 -169 -3 -3 -41 -36 -85 -74 -78 -68 -374 -361 -445 -441 -268 -302 -609
-765 -779 -1057 -187 -323 -342 -617 -435 -828 -151 -342 -238 -573 -341 -906
-36 -115 -114 -400 -130 -474 -2 -8 -15 -64 -29 -125 -27 -119 -71 -352 -81
-425 -3 -25 -8 -53 -11 -62 -3 -9 -6 -32 -8 -50 -5 -45 -17 -137 -21 -159 -2
-10 -7 -49 -10 -86 -4 -37 -9 -75 -10 -84 -2 -9 -6 -54 -10 -100 -4 -46 -8
-100 -10 -119 -25 -250 -26 -1042 -1 -1201 3 -13 7 -61 11 -105 3 -45 8 -93
10 -105 2 -13 6 -53 10 -89 7 -70 10 -91 19 -160 10 -64 36 -230 41 -260 3
-14 7 -38 10 -55 31 -174 106 -499 152 -655 9 -30 18 -59 19 -65 1 -5 13 -46
26 -91 l25 -80 -86 -22 c-47 -12 -135 -33 -196 -47 -88 -20 -247 -57 -345 -80
-39 -9 -655 -146 -674 -149 -11 -2 -65 -14 -120 -26 -54 -12 -106 -23 -115
-25 -21 -4 -633 -131 -726 -150 -38 -8 -81 -17 -95 -19 -28 -5 -161 -30 -265
-51 -64 -13 -365 -71 -425 -81 -14 -3 -83 -16 -155 -29 -169 -32 -174 -33
-280 -50 -49 -8 -101 -17 -115 -20 -30 -5 -262 -44 -305 -51 -16 -3 -43 -7
-60 -10 -16 -2 -41 -6 -55 -9 -36 -7 -71 -12 -190 -30 -101 -15 -118 -18 -186
-30 -18 -2 -49 -7 -70 -10 -22 -3 -50 -7 -64 -10 -14 -3 -45 -7 -70 -10 -25
-3 -56 -8 -70 -10 -49 -9 -86 -14 -130 -20 -25 -3 -85 -12 -135 -20 -49 -7
-110 -17 -135 -20 -25 -3 -133 -19 -240 -35 -107 -16 -215 -32 -240 -35 -25
-3 -56 -8 -70 -10 -32 -6 -74 -12 -130 -20 -25 -3 -57 -8 -71 -10 -14 -3 -41
-7 -60 -9 -19 -3 -97 -14 -174 -26 -77 -12 -156 -24 -175 -26 -19 -3 -46 -7
-60 -9 -14 -2 -54 -9 -90 -14 -36 -6 -81 -13 -100 -16 -19 -3 -48 -7 -65 -10
-127 -17 -298 -69 -419 -125 -198 -92 -356 -234 -429 -383 -55 -112 -67 -174
-63 -312 2 -107 6 -129 34 -200 101 -256 359 -436 761 -531 93 -22 215 -47
291 -60 14 -3 36 -7 50 -9 100 -20 184 -34 295 -50 11 -2 49 -8 85 -14 85 -13
124 -19 185 -26 28 -4 61 -8 75 -11 14 -2 45 -6 70 -10 25 -3 56 -7 70 -10 14
-2 45 -6 70 -10 25 -3 70 -9 100 -14 30 -5 78 -12 105 -15 28 -3 59 -8 70 -10
11 -3 38 -7 60 -10 22 -3 108 -16 190 -30 249 -40 403 -64 445 -70 14 -2 39
-6 55 -9 17 -3 104 -17 195 -31 91 -14 219 -34 285 -45 66 -10 138 -22 160
-25 23 -3 50 -7 62 -9 11 -3 38 -7 59 -10 22 -4 77 -13 124 -21 47 -7 103 -16
125 -20 42 -6 153 -23 195 -30 66 -11 88 -14 130 -20 25 -3 52 -8 60 -10 8 -2
35 -7 60 -10 25 -3 97 -15 160 -25 63 -11 133 -22 155 -25 22 -3 65 -10 95
-15 30 -5 73 -12 95 -15 43 -6 70 -10 155 -25 62 -11 84 -14 235 -36 17 -2 42
-7 57 -10 15 -3 39 -7 55 -9 15 -2 42 -6 58 -9 17 -3 104 -17 195 -31 91 -14
176 -27 190 -30 71 -12 149 -25 183 -29 88 -13 118 -18 227 -36 141 -23 185
-30 230 -36 19 -2 58 -8 85 -14 28 -5 68 -12 90 -15 22 -3 51 -7 65 -10 14 -2
41 -6 60 -9 55 -8 482 -76 515 -82 17 -4 41 -7 55 -9 14 -1 81 -12 150 -23
168 -28 183 -30 270 -43 41 -5 85 -12 98 -14 36 -6 120 23 156 56 70 61 100
182 63 259 -29 60 -85 88 -207 104 -25 3 -56 8 -70 11 -14 3 -68 12 -120 20
-52 8 -153 24 -225 35 -71 12 -146 23 -165 26 -19 2 -60 9 -90 14 -83 14 -230
38 -272 45 -38 5 -91 13 -138 20 -14 2 -65 11 -115 19 -49 8 -108 18 -130 21
-22 3 -56 8 -75 11 -19 3 -62 10 -95 15 -63 11 -86 14 -175 29 -30 5 -75 12
-100 15 -25 4 -101 15 -170 26 -69 11 -137 22 -152 24 -15 2 -35 6 -45 9 -10
2 -40 7 -68 11 -27 3 -61 8 -75 10 -14 3 -38 7 -55 9 -16 3 -75 12 -130 21
-136 22 -137 22 -250 40 -55 9 -111 18 -125 20 -14 2 -83 13 -155 25 -71 11
-143 22 -160 25 -16 2 -48 7 -70 10 -22 3 -51 8 -65 11 -44 8 -64 11 -113 18
-27 4 -56 9 -65 10 -10 2 -38 6 -63 10 -25 4 -57 9 -70 11 -115 19 -149 25
-184 30 -126 19 -258 39 -320 50 -53 10 -139 24 -175 29 -58 8 -363 56 -395
62 -16 4 -41 7 -55 9 -21 2 -71 10 -130 20 -8 1 -49 8 -90 15 -41 6 -86 13
-100 16 -40 6 -222 35 -255 39 -16 3 -41 7 -55 10 -14 3 -43 7 -65 10 -22 3
-51 8 -65 10 -14 3 -38 7 -55 9 -89 15 -312 49 -395 62 -52 8 -107 17 -122 19
-16 3 -40 7 -55 9 -16 3 -68 12 -118 20 -49 8 -112 18 -140 22 -27 3 -57 7
-65 9 -8 1 -35 6 -60 10 -25 4 -52 9 -60 10 -15 3 -84 13 -130 20 -275 42
-393 63 -487 91 -210 61 -356 180 -367 300 -10 118 115 254 313 340 69 30 289
81 421 99 25 3 72 10 105 15 33 5 85 12 115 15 30 3 66 8 80 10 14 2 52 6 85
10 33 3 77 8 98 10 76 10 113 14 167 20 30 3 62 8 70 10 8 2 39 7 69 10 30 4
61 8 70 10 18 3 75 12 136 20 22 3 67 10 100 15 33 5 80 12 105 15 25 3 56 8
70 10 32 6 66 11 165 25 44 6 103 15 130 20 28 5 68 12 90 15 39 5 202 31 258
40 15 3 39 7 55 10 43 7 443 73 482 80 19 3 60 10 90 15 30 5 71 12 90 15 44
7 241 42 340 60 41 8 91 17 110 20 19 3 80 14 135 25 55 11 118 22 140 25 22
4 47 8 55 10 13 4 224 45 310 60 14 2 95 18 180 35 85 17 169 33 185 36 17 3
46 9 65 14 19 5 51 11 70 14 19 2 80 14 135 26 55 12 109 23 120 26 11 2 31 6
45 9 14 3 36 7 49 10 50 9 221 45 283 59 34 8 77 17 93 20 17 2 82 16 145 30
63 15 124 28 135 30 11 3 103 23 205 46 102 23 194 43 205 45 148 31 792 184
839 200 148 51 264 199 271 345 2 41 -5 67 -74 292 -28 92 -53 177 -55 190
-10 47 -14 64 -25 91 -6 15 -8 27 -6 27 2 0 1 10 -4 23 -5 13 -12 41 -15 61
-4 21 -8 41 -10 45 -3 5 -36 158 -50 231 -3 14 -9 48 -15 75 -5 28 -12 70 -16
95 -3 25 -8 52 -10 60 -2 8 -11 71 -20 140 -8 69 -17 139 -20 155 -7 52 -16
138 -19 195 -3 30 -8 100 -12 155 -17 196 -10 867 11 1075 2 19 6 67 9 105 7
75 15 144 22 186 2 15 6 47 9 70 9 78 16 124 20 139 2 8 7 40 10 70 4 30 10
73 15 95 5 22 12 56 15 75 8 51 45 229 55 270 5 19 11 46 14 60 25 140 147
551 256 865 31 89 151 388 186 463 19 41 34 76 34 79 0 12 192 395 248 495 33
59 62 113 66 120 7 14 6 12 85 143 387 642 915 1235 1409 1583 271 191 582
340 952 457 102 33 197 61 236 70 17 4 165 41 204 50 22 6 360 73 395 79 17 3
46 8 65 11 19 3 58 10 85 15 28 5 70 12 95 15 25 4 63 10 85 15 22 5 60 11 85
14 25 3 54 8 66 10 12 2 45 7 75 11 30 3 61 8 69 10 8 2 38 6 65 10 28 3 57 8
65 10 8 2 42 6 75 10 33 3 71 8 85 10 53 8 268 35 325 40 33 3 67 8 75 10 8 2
49 7 90 10 41 3 86 7 100 10 14 2 54 7 90 10 36 3 88 8 115 11 91 9 139 13
205 19 36 3 85 8 110 10 25 3 77 7 115 10 39 3 97 7 130 10 240 19 433 31 615
40 58 3 148 7 200 10 306 15 577 20 1085 20 576 0 765 -6 1085 -31 47 -4 103
-8 125 -9 69 -4 221 -19 305 -30 19 -3 58 -8 85 -11 28 -3 57 -7 65 -9 8 -1
40 -6 70 -10 210 -27 503 -85 745 -146 66 -17 127 -32 135 -34 19 -5 122 -36
215 -65 248 -78 583 -235 755 -354 423 -293 641 -593 989 -1366 51 -113 108
-238 127 -278 19 -41 34 -76 34 -78 0 -2 13 -33 30 -68 16 -36 41 -94 56 -128
14 -35 35 -83 46 -108 11 -25 26 -60 34 -77 8 -18 20 -48 28 -65 79 -184 284
-680 363 -878 46 -118 89 -224 93 -235 5 -11 35 -85 65 -165 31 -80 60 -155
65 -168 11 -25 184 -485 204 -542 7 -19 37 -100 65 -180 29 -80 59 -163 68
-185 8 -22 26 -69 38 -105 169 -480 320 -930 435 -1290 39 -124 77 -243 85
-265 15 -44 52 -167 174 -570 16 -55 55 -188 86 -295 30 -107 64 -224 75 -260
11 -36 20 -70 20 -76 0 -6 -27 -21 -60 -33 -201 -73 -203 -363 -2 -406 9 -2
62 -15 117 -30 96 -25 185 -48 605 -156 107 -28 229 -59 270 -70 41 -11 82
-22 90 -24 23 -5 695 -184 775 -206 39 -11 86 -24 105 -29 19 -6 118 -33 220
-61 282 -77 790 -223 1030 -295 118 -36 222 -67 230 -69 94 -22 1113 -360
1445 -479 392 -141 1088 -415 1300 -511 17 -8 86 -38 155 -68 336 -145 964
-448 1245 -600 44 -24 121 -65 170 -91 288 -155 760 -432 933 -548 111 -74
305 -217 357 -262 73 -65 187 -182 212 -220 15 -23 31 -43 34 -46 3 -3 18 -25
33 -49 l28 -43 -64 7 c-34 4 -76 8 -93 10 -104 10 -173 17 -195 20 -14 2 -61
7 -105 11 -44 3 -87 8 -96 9 -8 2 -53 6 -100 10 -46 3 -91 8 -99 10 -8 2 -55
7 -105 10 -49 3 -106 8 -125 10 -19 3 -69 7 -110 10 -41 3 -93 8 -115 10 -22
2 -85 7 -140 10 -55 4 -116 8 -135 10 -19 2 -78 6 -130 9 -52 4 -124 8 -160
11 -83 6 -208 13 -520 30 -606 31 -959 39 -1785 39 -636 0 -1077 -6 -1305 -19
-36 -2 -146 -6 -245 -10 -99 -4 -205 -8 -235 -10 -30 -2 -104 -6 -165 -10 -60
-3 -137 -8 -170 -10 -33 -2 -109 -7 -170 -11 -60 -4 -126 -8 -145 -9 -19 -1
-82 -5 -140 -9 -58 -4 -121 -9 -140 -11 -19 -2 -73 -7 -120 -10 -47 -3 -103
-8 -125 -10 -22 -2 -76 -7 -120 -10 -44 -3 -96 -8 -115 -10 -19 -3 -64 -7
-100 -10 -36 -3 -81 -7 -100 -10 -19 -3 -64 -7 -100 -10 -36 -3 -81 -7 -100
-10 -19 -2 -62 -7 -95 -10 -33 -3 -76 -8 -95 -10 -34 -4 -106 -12 -200 -22
-25 -2 -56 -6 -70 -7 -14 -2 -54 -7 -90 -11 -36 -4 -72 -8 -80 -10 -8 -1 -44
-6 -80 -10 -36 -3 -76 -8 -90 -10 -61 -9 -403 -53 -470 -61 -99 -11 -151 -56
-176 -152 -13 -51 -9 -126 11 -232 2 -13 7 -46 10 -74 3 -28 8 -58 10 -66 2
-8 6 -31 9 -50 3 -19 8 -53 11 -75 7 -45 34 -217 40 -255 2 -14 7 -45 10 -70
3 -25 12 -83 20 -130 8 -47 16 -103 20 -125 3 -22 10 -67 15 -100 5 -33 12
-78 15 -100 4 -22 8 -51 10 -65 13 -83 25 -161 30 -200 3 -25 10 -70 15 -100
15 -89 19 -112 26 -165 3 -27 8 -59 10 -70 7 -36 23 -139 29 -190 4 -27 8 -57
10 -65 2 -8 7 -37 10 -65 4 -27 8 -57 10 -65 2 -8 7 -35 10 -60 3 -25 10 -70
15 -100 5 -30 11 -71 14 -90 3 -19 14 -96 26 -170 12 -74 23 -151 26 -170 3
-19 7 -46 10 -60 2 -14 7 -45 10 -70 3 -25 8 -52 9 -62 2 -9 7 -38 11 -65 3
-26 8 -57 10 -68 2 -11 6 -42 10 -70 3 -27 7 -52 9 -55 2 -3 6 -30 10 -60 3
-30 10 -80 15 -110 14 -84 30 -181 35 -220 3 -19 7 -46 10 -60 2 -14 7 -45 10
-70 3 -25 8 -58 11 -74 4 -16 7 -40 9 -55 1 -14 12 -87 24 -161 19 -126 52
-343 66 -435 3 -22 10 -65 15 -95 5 -30 12 -71 15 -90 3 -19 10 -60 15 -90 5
-30 12 -75 16 -100 3 -25 8 -54 10 -65 2 -11 10 -65 19 -120 22 -133 21 -128
34 -225 7 -47 14 -96 16 -110 7 -53 14 -107 19 -150 3 -25 8 -67 11 -95 12
-102 15 -132 21 -210 11 -145 12 -168 13 -375 0 -197 -3 -280 -13 -345 -3 -16
-8 -57 -12 -90 -7 -69 -62 -284 -93 -368 -72 -193 -193 -368 -342 -492 -127
-105 -378 -211 -569 -240 -200 -30 -449 -36 -780 -21 -85 4 -198 9 -250 11
-52 3 -135 7 -185 10 -49 3 -121 8 -160 10 -38 2 -117 6 -175 10 -58 3 -136 8
-175 10 -38 2 -117 7 -175 10 -58 3 -136 8 -175 10 -38 2 -117 7 -175 10 -58
3 -143 7 -190 10 -47 3 -128 7 -180 10 -52 2 -131 7 -175 9 -44 3 -134 8 -200
11 -66 3 -145 8 -175 10 -30 2 -113 7 -185 10 -71 3 -157 8 -190 10 -33 3
-109 7 -170 10 -60 3 -146 7 -190 10 -44 2 -129 7 -190 10 -60 4 -141 8 -180
10 -38 2 -122 7 -185 10 -63 3 -149 8 -190 10 -41 2 -122 7 -180 10 -58 3
-139 8 -180 10 -41 2 -124 7 -185 10 -60 4 -139 8 -175 10 -36 2 -117 6 -180
9 -63 4 -146 8 -185 11 -38 2 -124 7 -190 10 -66 3 -147 8 -180 10 -33 3 -116
7 -185 10 -69 3 -152 8 -185 10 -33 2 -114 7 -180 10 -66 3 -151 8 -190 10
-38 3 -122 7 -185 10 -63 3 -142 7 -175 10 -33 2 -116 6 -185 10 -69 4 -152 9
-185 10 -33 2 -107 6 -165 9 -58 3 -145 8 -195 11 -49 2 -137 7 -195 10 -58 3
-141 8 -185 11 -44 2 -118 7 -165 9 -129 6 -278 15 -350 20 -120 8 -344 22
-475 30 -44 3 -102 7 -130 10 -27 2 -88 7 -135 10 -47 3 -105 8 -130 10 -25 2
-79 7 -120 10 -41 3 -97 8 -125 10 -27 3 -75 7 -105 10 -30 3 -127 12 -215 20
-88 9 -185 18 -215 21 -30 2 -71 7 -90 10 -19 2 -55 7 -80 9 -67 7 -231 26
-260 30 -14 2 -65 9 -115 15 -49 6 -101 13 -115 15 -14 2 -43 6 -65 9 -22 4
-56 9 -75 11 -19 2 -109 16 -200 30 -91 14 -181 28 -200 31 -19 3 -42 7 -50 9
-8 2 -31 7 -50 10 -19 3 -73 13 -120 21 -109 21 -120 23 -150 29 -14 3 -43 8
-65 11 -22 3 -43 8 -46 10 -4 2 -23 6 -43 10 -29 4 -458 99 -536 119 -110 27
-254 65 -380 99 -85 24 -177 49 -205 56 -66 16 -146 53 -167 77 -39 43 -61
126 -73 268 -3 44 -8 87 -10 95 -2 8 -7 38 -10 65 -4 28 -8 57 -10 65 -2 8 -7
40 -10 70 -3 30 -8 62 -10 70 -2 8 -6 33 -9 55 -6 46 -35 248 -41 285 -2 14
-6 45 -10 70 -3 25 -8 56 -10 70 -2 14 -7 43 -10 65 -3 23 -7 50 -9 60 -2 11
-7 45 -11 75 -4 30 -8 62 -10 70 -1 8 -6 38 -9 65 -4 28 -9 61 -11 75 -2 14
-9 61 -15 105 -6 44 -14 94 -16 110 -3 17 -7 41 -9 55 -3 21 -33 228 -50 345
-3 17 -21 140 -40 275 -20 135 -38 256 -40 270 -2 14 -7 48 -11 75 -3 28 -8
57 -10 67 -1 9 -6 38 -10 65 -3 26 -8 55 -9 63 -2 8 -6 40 -10 70 -4 30 -9 63
-11 73 -2 14 -19 128 -39 272 -2 11 -6 40 -10 65 -3 25 -8 56 -10 70 -2 14 -6
43 -10 65 -8 54 -15 103 -20 145 -3 19 -7 49 -10 65 -2 17 -7 48 -10 70 -4 22
-8 51 -10 64 -2 13 -7 45 -11 70 -3 25 -8 57 -10 71 -2 14 -8 59 -14 101 -6
41 -12 85 -14 96 -3 11 -7 44 -11 74 -3 30 -8 61 -10 69 -2 8 -6 38 -10 65 -3
28 -10 75 -15 105 -5 30 -12 78 -16 105 -3 28 -8 59 -10 70 -2 11 -13 85 -24
165 -11 80 -23 156 -25 170 -2 14 -6 45 -10 70 -3 25 -8 56 -10 70 -2 14 -7
43 -10 65 -25 176 -87 599 -99 680 -8 55 -17 120 -21 145 -3 25 -10 70 -15
100 -5 30 -12 75 -15 100 -5 46 -15 113 -20 140 -1 8 -6 40 -10 70 -9 68 -25
100 -67 135 -55 47 -130 63 -202 44 -111 -30 -161 -135 -137 -286 6 -37 13
-88 16 -113 3 -25 8 -52 10 -60 2 -8 6 -42 10 -74 3 -32 7 -62 9 -65 2 -3 7
-33 10 -66 4 -33 9 -69 12 -80 2 -11 6 -36 8 -55 10 -78 17 -127 26 -175 8
-47 14 -88 25 -180 3 -22 9 -65 15 -95 5 -30 11 -71 14 -90 12 -88 19 -137 22
-155 2 -11 11 -67 19 -125 8 -58 22 -152 30 -210 9 -58 18 -121 21 -140 5 -36
7 -53 25 -174 5 -38 11 -78 14 -90 3 -12 7 -39 9 -62 3 -22 7 -56 11 -75 3
-19 7 -47 9 -64 6 -51 37 -263 41 -287 3 -13 7 -43 11 -68 3 -25 9 -70 14
-100 5 -30 12 -77 16 -105 3 -27 8 -57 9 -65 2 -9 6 -43 10 -75 4 -33 9 -69
11 -80 2 -10 6 -37 9 -60 3 -22 10 -67 15 -100 5 -33 12 -78 15 -100 3 -22 8
-51 10 -65 3 -14 7 -47 11 -75 3 -27 8 -59 10 -70 4 -22 12 -73 19 -130 2 -22
7 -49 9 -60 2 -11 7 -42 10 -70 4 -27 16 -106 26 -175 10 -69 21 -145 25 -170
3 -25 11 -74 16 -110 6 -36 12 -78 14 -95 2 -16 6 -46 9 -65 3 -19 8 -53 11
-75 3 -23 7 -50 9 -61 2 -12 7 -45 11 -75 4 -30 8 -56 10 -59 1 -3 6 -36 10
-75 4 -38 8 -72 10 -75 1 -3 6 -27 9 -55 7 -52 8 -57 25 -170 6 -38 13 -86 15
-105 3 -19 12 -84 21 -145 9 -60 18 -123 21 -140 2 -16 13 -91 24 -165 10 -74
22 -153 25 -175 3 -22 8 -51 10 -65 3 -14 7 -47 11 -75 3 -27 8 -58 9 -67 2
-9 11 -68 20 -130 9 -62 18 -122 19 -133 2 -11 7 -40 10 -65 4 -25 11 -74 17
-110 67 -420 214 -542 814 -675 11 -2 117 -29 235 -59 118 -31 233 -58 255
-62 22 -3 43 -8 48 -11 4 -3 23 -7 40 -10 18 -2 46 -8 62 -13 24 -7 326 -69
420 -85 11 -2 47 -9 80 -14 33 -6 71 -13 85 -16 31 -6 45 -9 200 -34 69 -12
172 -28 230 -36 58 -9 116 -18 130 -20 14 -2 63 -9 110 -15 47 -6 96 -13 110
-15 51 -8 238 -31 324 -41 33 -3 67 -8 75 -9 9 -2 28 -4 43 -4 26 -1 28 -4 23
-33 -2 -18 -9 -71 -15 -118 -6 -47 -13 -96 -15 -110 -2 -14 -6 -45 -10 -70 -3
-25 -10 -76 -15 -115 -5 -38 -12 -90 -15 -115 -4 -25 -8 -56 -10 -70 -2 -14
-6 -47 -10 -75 -3 -27 -8 -61 -10 -75 -2 -14 -6 -47 -10 -75 -10 -89 -16 -129
-20 -155 -2 -14 -7 -45 -10 -70 -3 -25 -8 -61 -10 -80 -3 -19 -7 -55 -10 -80
-3 -25 -7 -54 -9 -65 -2 -11 -7 -45 -11 -75 -7 -58 -10 -81 -19 -145 -3 -22
-8 -60 -11 -85 -3 -25 -8 -56 -10 -70 -2 -14 -7 -50 -10 -80 -4 -30 -8 -66
-10 -80 -4 -24 -10 -70 -21 -155 -3 -22 -7 -51 -9 -65 -7 -51 -15 -106 -20
-150 -4 -25 -8 -56 -10 -70 -5 -33 -17 -129 -21 -160 -4 -38 -15 -122 -19
-150 -5 -32 -15 -106 -20 -150 -2 -19 -11 -82 -19 -140 -8 -58 -18 -129 -21
-159 -4 -30 -8 -61 -10 -70 -1 -9 -6 -41 -9 -72 -4 -31 -8 -65 -10 -75 -2 -11
-7 -44 -11 -74 -7 -62 -11 -88 -19 -145 -3 -22 -8 -62 -12 -90 -3 -27 -7 -61
-9 -75 -7 -44 -15 -104 -20 -150 -7 -62 -22 -147 -47 -265 -63 -307 -124 -431
-359 -725 -188 -236 -276 -371 -332 -513 -33 -83 -36 -129 -10 -187 50 -113
178 -159 287 -103 46 24 73 59 116 150 45 97 115 203 218 333 42 52 78 97 81
100 13 11 130 169 171 229 58 86 131 244 169 366 42 132 48 154 55 190 18 90
45 238 51 285 11 77 16 113 25 174 5 32 9 61 8 65 -1 3 2 29 6 56 9 60 13 86
20 145 3 25 12 92 20 150 14 98 21 153 32 240 9 73 15 116 19 140 2 14 7 49
10 79 4 30 8 62 10 71 2 10 9 61 15 115 6 54 13 105 15 115 2 9 6 41 10 71 3
30 8 66 10 80 5 28 10 67 20 149 3 30 10 80 15 110 5 30 12 80 15 110 8 62 14
111 21 155 5 36 9 70 30 230 8 66 17 131 19 145 4 28 23 165 30 225 8 65 15
118 21 160 3 22 7 51 9 65 2 14 6 43 9 65 3 22 8 60 11 85 5 43 12 96 20 150
2 14 6 48 10 75 3 28 7 59 9 70 2 11 7 45 10 76 4 31 8 65 10 76 2 10 7 46 11
78 4 33 9 67 10 75 2 8 6 44 11 80 4 36 8 67 9 70 1 3 5 34 9 68 l8 64 102 -7
c55 -4 110 -9 121 -11 11 -2 56 -6 100 -9 44 -3 96 -7 115 -10 19 -2 78 -6
130 -10 52 -3 111 -8 130 -10 19 -3 78 -7 130 -10 52 -3 120 -7 150 -10 121
-10 234 -17 465 -30 66 -3 139 -8 163 -10 23 -2 102 -7 175 -10 72 -4 148 -8
167 -10 19 -2 94 -6 165 -10 129 -6 179 -9 350 -20 92 -5 217 -13 360 -20 74
-4 141 -8 350 -20 44 -2 127 -7 185 -10 58 -3 137 -7 175 -10 39 -2 124 -7
190 -10 66 -4 147 -8 180 -10 33 -2 114 -7 180 -10 135 -6 238 -12 370 -19
127 -8 276 -16 375 -21 146 -7 292 -15 385 -20 82 -5 137 -8 363 -20 42 -2
133 -7 202 -10 69 -3 157 -8 195 -10 39 -2 122 -7 185 -10 63 -3 144 -8 180
-10 36 -3 119 -7 185 -10 66 -3 149 -7 185 -10 36 -2 126 -7 200 -10 74 -4
160 -8 190 -10 30 -2 107 -7 170 -10 63 -3 147 -7 185 -10 39 -2 120 -7 180
-10 61 -4 111 -8 112 -9 1 -1 5 -37 8 -81 3 -44 8 -93 10 -110 2 -16 7 -61 10
-100 4 -38 8 -86 10 -105 5 -47 16 -167 20 -210 8 -95 16 -178 20 -210 3 -19
7 -60 10 -90 3 -30 7 -75 10 -100 2 -25 7 -74 10 -110 3 -36 8 -81 10 -100 2
-19 7 -69 10 -110 4 -41 8 -86 10 -100 2 -14 7 -59 10 -100 3 -41 8 -86 10
-100 2 -14 7 -56 10 -95 7 -98 15 -184 20 -225 2 -19 7 -64 10 -100 3 -36 8
-78 10 -95 2 -16 7 -68 10 -115 4 -47 9 -94 11 -104 2 -10 6 -51 9 -90 3 -39
8 -87 10 -106 6 -54 15 -149 20 -210 3 -30 7 -77 11 -105 3 -27 7 -68 9 -90
25 -350 67 -482 186 -589 81 -73 258 -144 424 -169 17 -3 73 -12 125 -22 92
-16 106 -18 180 -30 19 -3 46 -8 60 -10 14 -3 43 -7 65 -10 21 -2 73 -9 115
-14 41 -6 98 -13 125 -16 28 -3 66 -7 85 -10 19 -2 64 -7 100 -10 36 -3 87 -7
114 -10 141 -15 232 -14 272 4 107 48 152 177 99 283 -41 82 -105 114 -245
124 -105 7 -208 15 -250 20 -25 2 -63 7 -85 9 -22 3 -65 7 -95 11 -30 3 -66 7
-80 9 -14 3 -61 10 -105 16 -133 18 -464 78 -524 95 -31 9 -70 27 -87 40 -28
21 -33 31 -39 86 -4 35 -8 74 -10 88 -2 14 -7 59 -10 100 -3 41 -8 86 -10 100
-2 14 -7 59 -10 100 -3 41 -8 86 -10 100 -2 14 -6 59 -10 100 -3 41 -8 95 -11
120 -2 25 -6 63 -8 85 -3 22 -7 74 -11 115 -3 41 -8 86 -10 100 -2 14 -7 57
-10 95 -3 39 -7 86 -10 105 -5 38 -9 82 -25 260 -16 177 -21 222 -25 260 -2
19 -7 64 -10 100 -3 36 -8 88 -11 115 -4 28 -7 66 -9 85 -7 81 -24 265 -30
315 -2 17 -6 62 -10 100 -3 39 -8 84 -10 100 -2 17 -7 66 -10 110 -4 44 -8 92
-11 106 -2 15 -6 57 -9 95 -3 38 -7 85 -10 104 -2 19 -7 67 -10 106 l-6 72 48
-3 c26 -2 100 -7 163 -10 63 -3 149 -8 190 -10 41 -3 125 -7 185 -10 114 -6
178 -10 355 -20 273 -17 574 -29 715 -29 120 0 337 10 385 18 14 2 45 7 70 11
25 4 59 9 75 11 215 34 500 153 666 278 276 209 470 499 583 876 29 98 61 241
71 320 4 30 9 62 10 70 27 147 27 629 0 890 -6 58 -35 300 -40 333 -3 18 -21
138 -40 267 -20 129 -38 251 -41 270 -3 19 -11 76 -19 125 -8 50 -17 108 -20
130 -2 22 -6 49 -9 60 -2 11 -7 42 -10 68 -4 27 -9 56 -10 65 -5 25 -18 114
-21 139 -4 26 -15 99 -21 128 -5 22 -9 55 -19 130 -3 28 -8 57 -10 65 -2 8 -7
38 -10 65 -4 28 -8 57 -10 65 -4 16 -15 89 -20 130 -2 14 -5 39 -8 55 -3 17
-9 50 -12 75 -4 25 -9 52 -10 60 -2 8 -6 35 -9 60 -3 25 -8 54 -10 65 -2 11
-7 40 -10 65 -3 25 -8 54 -10 65 -2 11 -7 43 -10 70 -4 28 -11 75 -16 105 -5
30 -14 87 -20 125 -5 39 -12 81 -14 95 -3 14 -7 43 -11 65 -17 114 -37 244
-55 365 -12 74 -23 149 -25 165 -5 33 -9 58 -30 190 -7 50 -16 110 -20 135 -3
25 -10 68 -15 95 -5 28 -12 68 -14 90 -5 46 -13 97 -26 175 -5 30 -12 71 -15
90 -2 19 -14 96 -25 170 -12 74 -23 151 -26 170 -2 19 -6 44 -9 55 -2 11 -7
43 -10 70 -3 28 -8 59 -10 71 -3 12 -7 39 -10 60 -3 21 -10 64 -15 94 -5 30
-11 73 -15 95 -3 22 -7 51 -10 65 -2 14 -7 43 -10 65 -3 22 -7 51 -10 65 -2
14 -9 61 -15 105 -7 44 -14 89 -16 100 -2 11 -7 41 -10 68 -6 46 -6 47 20 48
14 1 29 2 34 3 4 1 36 6 72 10 36 5 72 10 80 11 8 2 44 6 80 10 36 4 72 8 80
10 8 1 42 6 75 9 33 4 77 9 98 11 82 11 114 14 162 19 28 3 95 11 150 17 55 6
116 12 136 14 49 4 156 15 199 20 19 3 69 7 110 10 41 3 91 7 110 10 19 2 67
7 105 10 71 6 133 11 228 20 28 3 90 7 137 10 47 3 110 8 140 10 141 11 182
14 275 20 170 10 226 14 340 20 61 3 139 8 175 10 68 4 316 15 460 20 47 2
189 7 315 11 291 11 1746 11 2045 1 124 -5 277 -10 340 -12 150 -5 491 -21
635 -30 116 -8 227 -14 332 -20 50 -3 113 -7 140 -10 26 -2 89 -7 138 -10 50
-3 110 -8 135 -10 25 -3 81 -7 125 -10 44 -3 100 -7 125 -10 25 -2 73 -7 108
-10 129 -10 188 -16 222 -20 30 -3 74 -8 210 -20 37 -3 160 -16 195 -20 17 -2
59 -6 95 -10 36 -3 76 -8 90 -10 14 -2 54 -7 90 -10 36 -4 115 -13 175 -21
203 -26 259 -28 298 -9 37 17 73 59 96 110 41 91 0 289 -100 487 -121 239
-340 469 -674 709 -49 36 -110 77 -135 92 -25 15 -90 57 -145 92 -55 36 -106
68 -114 72 -8 3 -60 34 -115 68 -178 109 -425 249 -666 380 -215 116 -757 388
-925 465 -57 26 -306 138 -510 230 -96 43 -587 245 -770 316 -174 68 -439 169
-525 199 -36 13 -110 40 -165 60 -176 64 -292 104 -624 215 -275 93 -426 141
-906 290 -33 11 -98 31 -145 45 -47 15 -92 29 -100 30 -8 2 -100 29 -205 60
-104 31 -212 63 -240 70 -27 8 -90 26 -140 40 -49 14 -97 27 -105 29 -8 2
-154 43 -325 90 -170 47 -346 95 -390 107 -44 12 -109 30 -145 40 -53 14 -254
68 -320 84 -8 2 -85 22 -170 45 -85 23 -189 50 -230 60 -41 10 -153 39 -249
64 -95 25 -175 46 -177 46 -2 0 -4 7 -4 15 0 8 -18 79 -41 157 -22 79 -45 161
-50 183 -5 22 -18 67 -28 100 -28 90 -51 168 -56 190 -6 32 -137 463 -241 795
-100 320 -353 1085 -447 1350 -132 375 -158 446 -166 465 -5 11 -32 85 -60
165 -29 80 -58 161 -66 180 -7 19 -25 64 -38 100 -14 36 -69 180 -123 320
-177 465 -566 1421 -689 1695 -8 17 -51 118 -96 225 -299 716 -517 1118 -780
1446 -73 90 -254 274 -345 351 -328 276 -828 511 -1390 653 -157 39 -463 103
-560 116 -27 3 -58 8 -69 10 -25 5 -293 41 -360 49 -27 3 -66 7 -85 10 -19 2
-71 7 -114 10 -43 4 -87 8 -96 10 -10 2 -62 6 -116 10 -55 4 -115 8 -134 10
-19 2 -93 6 -165 10 -71 4 -148 9 -170 10 -181 11 -1090 26 -1098 18z"/>
<path d="M17295 28945 c-167 -36 -349 -163 -430 -300 -14 -25 -46 -64 -71 -87
-139 -129 -162 -391 -50 -577 77 -127 198 -221 340 -267 101 -32 252 -31 353
2 40 13 88 26 105 29 178 30 305 113 369 243 29 59 33 78 34 152 1 51 8 99 18
121 20 49 16 134 -10 184 -11 22 -26 69 -33 105 -47 257 -357 452 -625 395z"/>
<path d="M12818 28625 c-2 -1 -23 -5 -48 -8 -98 -12 -198 -51 -409 -160 -339
-175 -557 -331 -686 -492 -22 -27 -53 -61 -69 -75 -55 -46 -77 -75 -108 -139
-27 -54 -32 -74 -32 -140 0 -79 2 -83 68 -206 42 -76 80 -103 176 -125 30 -7
60 -16 65 -20 30 -22 294 -117 405 -145 76 -20 68 -18 190 -44 136 -29 275
-25 351 11 59 27 124 86 149 134 8 16 24 43 36 59 25 34 47 106 42 138 -2 16
18 43 73 97 86 86 125 139 179 248 54 109 72 182 76 297 4 125 -13 203 -67
312 -69 137 -176 220 -320 247 -37 8 -69 12 -71 11z"/>
<path d="M17663 26025 c-33 -14 -64 -43 -142 -130 -24 -28 -65 -72 -90 -100
-26 -27 -84 -93 -131 -145 -46 -52 -100 -112 -120 -134 -19 -21 -46 -51 -60
-66 -14 -15 -38 -43 -55 -61 -16 -19 -52 -59 -80 -89 -65 -72 -188 -209 -212
-236 -15 -17 -99 -110 -199 -221 -12 -12 -52 -58 -90 -100 -38 -43 -82 -92
-99 -109 -16 -18 -41 -45 -54 -61 -14 -15 -67 -75 -119 -133 -52 -58 -111
-123 -131 -145 -314 -349 -352 -388 -392 -400 -23 -7 -67 19 -134 80 -22 20
-71 62 -110 93 -38 31 -72 59 -75 63 -14 16 -210 166 -330 251 -74 54 -139
101 -145 105 -10 8 -204 133 -275 179 -84 52 -273 160 -370 210 -30 15 -73 39
-95 53 -22 13 -41 24 -42 23 -2 -1 -59 26 -128 58 -69 33 -128 60 -130 60 -2
0 -32 13 -67 29 -106 48 -133 60 -265 112 -70 28 -219 82 -331 119 -207 70
-249 77 -313 52 -39 -16 -95 -67 -113 -106 -33 -71 -14 -178 42 -234 37 -37
50 -43 262 -113 647 -215 1280 -549 1845 -973 101 -75 330 -264 386 -316 17
-17 57 -46 126 -92 67 -46 166 -76 247 -76 179 1 307 81 536 338 36 40 70 78
75 84 6 6 66 74 135 151 68 77 127 142 130 145 4 3 46 50 96 105 49 55 91 102
94 105 3 3 39 43 80 90 41 46 84 94 95 105 11 11 56 61 100 110 44 50 85 95
90 101 6 6 44 48 85 94 41 46 80 88 85 94 6 6 51 56 100 111 49 55 94 105 100
111 5 6 39 44 75 84 36 40 74 82 85 94 11 12 58 64 105 116 47 52 103 114 125
138 82 88 107 172 78 258 -34 102 -180 164 -280 119z"/>
</g>
</svg>
