<?xml version="1.0" standalone="no"?>
<!DOCTYPE svg PUBLIC "-//W3C//DTD SVG 20010904//EN"
 "http://www.w3.org/TR/2001/REC-SVG-20010904/DTD/svg10.dtd">
<svg version="1.0" xmlns="http://www.w3.org/2000/svg"
 width="1250.000000pt" height="1250.000000pt" viewBox="0 0 1250.000000 1250.000000"
 preserveAspectRatio="xMidYMid meet">
<metadata>
Created by potrace 1.14, written by Peter Selinger 2001-2017
</metadata>
<g transform="translate(0.000000,1250.000000) scale(0.100000,-0.100000)"
fill="#000000" stroke="none">
<path d="M6008 10725 c-2 -2 -59 -6 -128 -10 -69 -3 -147 -8 -175 -10 -324
-25 -348 -28 -720 -80 -17 -2 -95 -18 -175 -35 -391 -83 -595 -200 -845 -484
-171 -195 -351 -500 -440 -746 -14 -41 -30 -84 -35 -95 -7 -16 -39 -127 -55
-195 -14 -54 -44 -214 -50 -259 -4 -30 -8 -63 -10 -73 -7 -33 -18 -220 -18
-288 0 -69 12 -275 18 -312 15 -99 28 -175 30 -188 18 -84 38 -166 54 -217 16
-52 17 -63 5 -67 -16 -6 -265 -65 -304 -73 -14 -2 -54 -11 -90 -19 -36 -9 -74
-17 -85 -19 -11 -1 -76 -15 -145 -29 -144 -31 -266 -56 -355 -71 -16 -3 -41
-8 -55 -10 -57 -12 -79 -16 -160 -30 -47 -8 -103 -17 -125 -20 -22 -3 -49 -7
-60 -10 -20 -4 -306 -48 -395 -60 -74 -10 -243 -35 -275 -41 -61 -10 -81 -13
-130 -20 -178 -23 -302 -112 -313 -224 -8 -81 4 -117 57 -170 42 -42 118 -82
181 -95 8 -2 49 -10 90 -19 41 -8 93 -18 115 -20 22 -3 49 -8 60 -10 12 -2 48
-7 80 -11 33 -4 67 -9 75 -10 16 -3 89 -14 130 -20 14 -2 57 -9 95 -15 39 -7
84 -14 100 -16 34 -5 205 -33 250 -40 17 -3 46 -7 65 -10 19 -2 60 -9 90 -14
30 -5 73 -12 95 -15 22 -4 51 -8 65 -11 14 -2 48 -7 75 -10 28 -4 53 -8 57
-10 3 -2 27 -7 51 -9 25 -3 56 -8 68 -10 13 -3 44 -8 69 -11 25 -3 52 -7 60
-9 8 -3 33 -7 55 -10 22 -3 51 -8 65 -11 14 -2 43 -7 64 -9 22 -3 51 -7 65
-10 156 -26 212 -35 246 -40 23 -3 50 -7 60 -9 11 -2 45 -7 75 -12 30 -4 58
-9 63 -10 4 -1 13 -2 21 -3 22 -2 27 -30 10 -57 -16 -23 -15 -54 1 -149 2 -11
7 -40 10 -65 3 -25 8 -56 10 -70 2 -14 9 -61 15 -105 6 -44 13 -92 16 -107 2
-16 6 -40 8 -55 3 -16 10 -64 16 -108 6 -44 13 -92 16 -106 2 -14 6 -41 8 -60
3 -19 7 -47 10 -64 3 -16 10 -68 16 -115 6 -46 13 -87 15 -90 2 -3 6 -36 10
-75 3 -38 8 -72 10 -75 2 -3 6 -30 10 -60 11 -90 14 -114 19 -136 2 -12 7 -45
11 -74 4 -29 8 -62 11 -73 4 -21 53 -361 60 -412 5 -39 26 -177 29 -190 18
-81 42 -118 95 -145 43 -22 252 -78 410 -110 58 -12 114 -23 125 -26 21 -5 44
-8 115 -19 25 -4 52 -9 60 -10 8 -1 42 -6 75 -10 32 -4 66 -8 75 -10 8 -1 42
-6 75 -10 33 -3 63 -10 67 -13 4 -4 3 -34 -2 -67 -5 -33 -11 -82 -15 -110 -3
-27 -8 -65 -11 -83 -2 -17 -6 -47 -8 -65 -3 -17 -8 -54 -11 -82 -4 -27 -8 -61
-11 -75 -2 -14 -6 -50 -9 -80 -3 -30 -8 -62 -10 -70 -2 -8 -7 -42 -11 -75 -3
-33 -7 -67 -9 -75 -3 -16 -13 -93 -19 -145 -2 -16 -7 -50 -10 -75 -10 -82 -18
-144 -21 -185 -10 -103 -30 -207 -46 -238 -7 -12 -11 -22 -9 -22 14 0 -82
-171 -110 -195 -18 -16 -70 -91 -89 -127 -34 -68 -24 -103 31 -103 24 0 35 11
74 73 26 39 63 92 83 117 108 133 142 235 175 525 4 28 8 66 11 85 2 19 7 58
10 85 5 45 8 72 20 155 2 14 6 45 10 70 3 25 10 79 16 120 6 41 13 91 14 110
2 19 6 51 9 70 2 19 12 89 21 155 8 66 18 136 21 155 3 19 7 58 10 85 7 62 9
65 37 59 22 -4 67 -8 217 -19 47 -3 108 -8 135 -11 47 -4 152 -10 340 -19 44
-2 114 -6 155 -9 98 -7 312 -19 555 -31 61 -2 142 -7 180 -10 39 -2 124 -7
190 -10 66 -3 156 -8 200 -10 145 -8 248 -14 370 -20 139 -7 259 -15 261 -18
2 -2 10 -78 19 -174 3 -32 10 -98 15 -148 6 -49 12 -119 15 -155 3 -36 8 -87
11 -115 2 -27 7 -72 10 -100 5 -56 11 -117 18 -190 3 -27 8 -88 12 -135 10
-155 56 -208 202 -236 83 -16 228 -34 329 -40 64 -4 73 -3 86 16 17 25 11 67
-12 79 -9 5 -54 12 -101 15 -101 8 -205 23 -338 50 -21 4 -52 35 -53 53 -1 10
-3 29 -4 43 -1 14 -5 64 -9 112 -4 48 -8 95 -10 105 -2 10 -7 59 -10 108 -4
50 -9 97 -11 105 -2 8 -6 49 -10 90 -3 41 -8 91 -10 110 -2 19 -7 64 -10 100
-3 36 -8 83 -10 105 -3 22 -7 71 -10 110 -4 38 -9 73 -11 77 -4 7 7 11 26 10
3 0 68 -3 145 -7 77 -3 165 -9 195 -11 74 -7 329 -6 360 1 14 3 37 7 51 10
185 34 333 183 389 394 36 136 34 334 -6 593 -27 177 -32 210 -49 323 -9 61
-18 124 -21 140 -3 17 -7 41 -9 55 -11 79 -27 180 -45 290 -11 69 -22 143 -25
165 -2 22 -7 51 -9 65 -3 14 -8 43 -11 65 -3 22 -7 51 -10 65 -2 14 -7 43 -10
65 -19 130 -37 252 -51 337 -9 53 -14 102 -12 109 4 13 13 15 108 24 36 3 74
8 85 10 11 2 47 7 80 10 33 3 78 8 100 11 22 2 72 7 110 10 39 3 86 7 105 9
33 4 119 10 285 20 423 27 1182 22 1543 -9 132 -12 189 -17 232 -21 49 -4 154
-14 210 -20 19 -2 62 -7 95 -10 33 -4 70 -8 82 -10 12 -2 29 5 39 16 40 45
-20 191 -120 292 -75 75 -162 136 -361 252 -543 318 -1189 567 -2150 830 -72
19 -140 37 -150 40 -11 2 -92 23 -179 47 l-159 43 -14 50 c-77 277 -221 732
-304 965 -50 139 -160 433 -175 465 -7 17 -42 102 -77 191 -36 88 -74 180 -85
205 -11 24 -48 109 -82 189 -163 379 -288 532 -531 649 -156 75 -182 84 -384
125 -131 26 -195 35 -385 52 -66 6 -686 14 -692 9z"/>
</g>
</svg>
