<?xml version="1.0" standalone="no"?>
<!DOCTYPE svg PUBLIC "-//W3C//DTD SVG 20010904//EN"
 "http://www.w3.org/TR/2001/REC-SVG-20010904/DTD/svg10.dtd">
<svg version="1.0" xmlns="http://www.w3.org/2000/svg"
 width="4167.000000pt" height="4167.000000pt" viewBox="0 0 4167.000000 4167.000000"
 preserveAspectRatio="xMidYMid meet">
<metadata>
Created by potrace 1.14, written by Peter Selinger 2001-2017
</metadata>
<g transform="translate(0.000000,4167.000000) scale(0.100000,-0.100000)"
fill="#000000" stroke="none">
<path d="M3929 41666 c-2 -2 -44 -7 -94 -10 -111 -9 -198 -18 -280 -31 -362
-58 -718 -160 -1030 -295 -83 -36 -368 -180 -445 -225 -185 -109 -360 -231
-555 -388 -279 -225 -581 -554 -797 -872 -136 -199 -289 -472 -367 -655 -13
-30 -32 -73 -41 -95 -19 -44 -27 -66 -29 -78 0 -4 -7 -20 -15 -35 -13 -26
-105 -291 -111 -322 -2 -8 -15 -58 -29 -110 -25 -95 -68 -295 -81 -380 -4 -25
-9 -53 -11 -64 -2 -10 -6 -44 -10 -75 -3 -31 -8 -64 -10 -74 -2 -10 -7 -62
-11 -115 -10 -126 -10 -33912 0 -34017 4 -44 10 -91 12 -105 2 -14 6 -50 10
-80 14 -118 15 -124 30 -200 3 -14 8 -38 11 -55 2 -16 14 -67 24 -112 11 -46
22 -93 24 -105 9 -43 47 -173 82 -283 166 -510 444 -1004 803 -1426 30 -35
134 -143 230 -239 468 -466 1003 -797 1625 -1004 246 -82 553 -152 796 -181
25 -3 61 -7 80 -10 19 -2 76 -8 125 -12 114 -10 33809 -10 33930 0 86 7 116
10 215 22 69 9 110 15 170 26 30 5 69 12 85 14 31 6 132 26 150 31 6 2 20 5
33 8 13 3 32 8 42 11 10 3 27 8 37 10 10 3 38 9 63 15 25 6 56 15 70 20 14 6
34 12 45 15 41 8 254 84 360 127 509 210 948 499 1341 884 73 71 158 159 190
195 325 364 598 803 773 1242 42 107 138 385 146 427 2 8 15 60 29 115 14 55
32 134 40 175 15 71 19 96 31 173 3 17 7 43 10 57 2 14 7 50 10 80 4 30 8 69
10 85 2 17 7 82 12 145 10 146 10 33791 0 33921 -4 53 -9 105 -11 115 -2 11
-7 48 -11 84 -4 36 -9 74 -11 85 -2 11 -6 36 -9 55 -3 19 -7 46 -10 60 -3 14
-10 52 -16 85 -59 327 -199 736 -363 1064 -297 590 -745 1120 -1276 1507 -352
257 -715 444 -1145 592 -144 50 -447 127 -580 148 -27 4 -52 8 -55 9 -3 0 -32
5 -65 10 -33 5 -62 9 -65 10 -3 1 -39 5 -81 9 -41 4 -89 10 -105 14 -30 6
-33918 15 -33925 8z"/>
</g>
</svg>
